<?xml version="1.0" encoding="UTF-8" standalone="no"?>
<!DOCTYPE svg PUBLIC "-//W3C//DTD SVG 1.1//EN"
 "http://www.w3.org/Graphics/SVG/1.1/DTD/svg11.dtd">
<!-- Generated by graphviz version 2.43.20190912.0211 (20190912.0211)
 -->
<!-- Title: %3 Pages: 1 -->
<svg width="658pt" height="980pt"
 viewBox="0.00 0.00 657.59 980.00" xmlns="http://www.w3.org/2000/svg" xmlns:xlink="http://www.w3.org/1999/xlink">
<g id="graph0" class="graph" transform="scale(1 1) rotate(0) translate(4 976)">
<title>%3</title>
<polygon fill="white" stroke="transparent" points="-4,4 -4,-976 653.59,-976 653.59,4 -4,4"/>
<!-- 28407 -->
<g id="node1" class="node">
<title>28407</title>
<ellipse fill="none" stroke="black" cx="301.3" cy="-378" rx="40.09" ry="18"/>
<text text-anchor="middle" x="301.3" y="-374.3" font-family="Times,serif" font-size="14.00">28407</text>
</g>
<!-- 28419 -->
<g id="node2" class="node">
<title>28419</title>
<ellipse fill="none" stroke="black" cx="285.3" cy="-306" rx="40.09" ry="18"/>
<text text-anchor="middle" x="285.3" y="-302.3" font-family="Times,serif" font-size="14.00">28419</text>
</g>
<!-- 28407&#45;&gt;28419 -->
<g id="edge2" class="edge">
<title>28407&#45;&gt;28419</title>
<path fill="none" stroke="black" d="M297.42,-360.05C295.64,-352.26 293.48,-342.82 291.49,-334.08"/>
<polygon fill="black" stroke="black" points="294.89,-333.24 289.25,-324.28 288.06,-334.8 294.89,-333.24"/>
</g>
<!-- 28408 -->
<g id="node3" class="node">
<title>28408</title>
<ellipse fill="none" stroke="black" cx="384.3" cy="-306" rx="40.09" ry="18"/>
<text text-anchor="middle" x="384.3" y="-302.3" font-family="Times,serif" font-size="14.00">28408</text>
</g>
<!-- 28407&#45;&gt;28408 -->
<g id="edge1" class="edge">
<title>28407&#45;&gt;28408</title>
<path fill="none" stroke="black" d="M319.31,-361.81C330.73,-352.18 345.69,-339.56 358.37,-328.86"/>
<polygon fill="black" stroke="black" points="360.93,-331.28 366.32,-322.16 356.42,-325.93 360.93,-331.28"/>
</g>
<!-- 28409 -->
<g id="node20" class="node">
<title>28409</title>
<ellipse fill="none" stroke="black" cx="333.3" cy="-234" rx="40.09" ry="18"/>
<text text-anchor="middle" x="333.3" y="-230.3" font-family="Times,serif" font-size="14.00">28409</text>
</g>
<!-- 28408&#45;&gt;28409 -->
<g id="edge3" class="edge">
<title>28408&#45;&gt;28409</title>
<path fill="none" stroke="black" d="M372.47,-288.76C366.19,-280.14 358.33,-269.36 351.31,-259.73"/>
<polygon fill="black" stroke="black" points="354.13,-257.65 345.42,-251.63 348.47,-261.78 354.13,-257.65"/>
</g>
<!-- 28406 -->
<g id="node4" class="node">
<title>28406</title>
<ellipse fill="none" stroke="black" cx="281.3" cy="-450" rx="40.09" ry="18"/>
<text text-anchor="middle" x="281.3" y="-446.3" font-family="Times,serif" font-size="14.00">28406</text>
</g>
<!-- 28406&#45;&gt;28407 -->
<g id="edge4" class="edge">
<title>28406&#45;&gt;28407</title>
<path fill="none" stroke="black" d="M286.14,-432.05C288.36,-424.26 291.06,-414.82 293.56,-406.08"/>
<polygon fill="black" stroke="black" points="296.98,-406.85 296.36,-396.28 290.25,-404.93 296.98,-406.85"/>
</g>
<!-- 28405 -->
<g id="node5" class="node">
<title>28405</title>
<ellipse fill="none" stroke="black" cx="281.3" cy="-522" rx="40.09" ry="18"/>
<text text-anchor="middle" x="281.3" y="-518.3" font-family="Times,serif" font-size="14.00">28405</text>
</g>
<!-- 28405&#45;&gt;28406 -->
<g id="edge5" class="edge">
<title>28405&#45;&gt;28406</title>
<path fill="none" stroke="black" d="M281.3,-503.7C281.3,-495.98 281.3,-486.71 281.3,-478.11"/>
<polygon fill="black" stroke="black" points="284.8,-478.1 281.3,-468.1 277.8,-478.1 284.8,-478.1"/>
</g>
<!-- 28397 -->
<g id="node6" class="node">
<title>28397</title>
<ellipse fill="none" stroke="black" cx="148.3" cy="-810" rx="40.09" ry="18"/>
<text text-anchor="middle" x="148.3" y="-806.3" font-family="Times,serif" font-size="14.00">28397</text>
</g>
<!-- 28397&#45;&gt;28406 -->
<g id="edge7" class="edge">
<title>28397&#45;&gt;28406</title>
<path fill="none" stroke="black" d="M141.42,-791.83C131.48,-765.44 114.3,-713.14 114.3,-667 114.3,-667 114.3,-667 114.3,-593 114.3,-526.99 190.95,-485.25 240.39,-465.19"/>
<polygon fill="black" stroke="black" points="241.85,-468.37 249.89,-461.46 239.3,-461.86 241.85,-468.37"/>
</g>
<!-- 28398 -->
<g id="node28" class="node">
<title>28398</title>
<ellipse fill="none" stroke="black" cx="201.3" cy="-738" rx="40.09" ry="18"/>
<text text-anchor="middle" x="201.3" y="-734.3" font-family="Times,serif" font-size="14.00">28398</text>
</g>
<!-- 28397&#45;&gt;28398 -->
<g id="edge6" class="edge">
<title>28397&#45;&gt;28398</title>
<path fill="none" stroke="black" d="M160.59,-792.76C167.12,-784.14 175.28,-773.36 182.57,-763.73"/>
<polygon fill="black" stroke="black" points="185.46,-765.72 188.7,-755.63 179.88,-761.49 185.46,-765.72"/>
</g>
<!-- 28404 -->
<g id="node7" class="node">
<title>28404</title>
<ellipse fill="none" stroke="black" cx="281.3" cy="-594" rx="40.09" ry="18"/>
<text text-anchor="middle" x="281.3" y="-590.3" font-family="Times,serif" font-size="14.00">28404</text>
</g>
<!-- 28404&#45;&gt;28405 -->
<g id="edge8" class="edge">
<title>28404&#45;&gt;28405</title>
<path fill="none" stroke="black" d="M281.3,-575.7C281.3,-567.98 281.3,-558.71 281.3,-550.11"/>
<polygon fill="black" stroke="black" points="284.8,-550.1 281.3,-540.1 277.8,-550.1 284.8,-550.1"/>
</g>
<!-- 28385 -->
<g id="node8" class="node">
<title>28385</title>
<ellipse fill="none" stroke="black" cx="380.3" cy="-666" rx="40.09" ry="18"/>
<text text-anchor="middle" x="380.3" y="-662.3" font-family="Times,serif" font-size="14.00">28385</text>
</g>
<!-- 28385&#45;&gt;28404 -->
<g id="edge10" class="edge">
<title>28385&#45;&gt;28404</title>
<path fill="none" stroke="black" d="M359.78,-650.5C345.54,-640.43 326.36,-626.86 310.52,-615.67"/>
<polygon fill="black" stroke="black" points="312.31,-612.64 302.12,-609.73 308.27,-618.36 312.31,-612.64"/>
</g>
<!-- 28400 -->
<g id="node24" class="node">
<title>28400</title>
<ellipse fill="none" stroke="black" cx="466.3" cy="-594" rx="40.09" ry="18"/>
<text text-anchor="middle" x="466.3" y="-590.3" font-family="Times,serif" font-size="14.00">28400</text>
</g>
<!-- 28385&#45;&gt;28400 -->
<g id="edge9" class="edge">
<title>28385&#45;&gt;28400</title>
<path fill="none" stroke="black" d="M398.96,-649.81C410.9,-640.09 426.59,-627.32 439.81,-616.56"/>
<polygon fill="black" stroke="black" points="442.13,-619.19 447.67,-610.16 437.71,-613.76 442.13,-619.19"/>
</g>
<!-- 28319 -->
<g id="node9" class="node">
<title>28319</title>
<ellipse fill="none" stroke="black" cx="182.3" cy="-666" rx="40.09" ry="18"/>
<text text-anchor="middle" x="182.3" y="-662.3" font-family="Times,serif" font-size="14.00">28319</text>
</g>
<!-- 28319&#45;&gt;28404 -->
<g id="edge11" class="edge">
<title>28319&#45;&gt;28404</title>
<path fill="none" stroke="black" d="M202.81,-650.5C217.05,-640.43 236.23,-626.86 252.07,-615.67"/>
<polygon fill="black" stroke="black" points="254.32,-618.36 260.47,-609.73 250.28,-612.64 254.32,-618.36"/>
</g>
<!-- 28403 -->
<g id="node10" class="node">
<title>28403</title>
<ellipse fill="none" stroke="black" cx="281.3" cy="-666" rx="40.09" ry="18"/>
<text text-anchor="middle" x="281.3" y="-662.3" font-family="Times,serif" font-size="14.00">28403</text>
</g>
<!-- 28403&#45;&gt;28404 -->
<g id="edge12" class="edge">
<title>28403&#45;&gt;28404</title>
<path fill="none" stroke="black" d="M281.3,-647.7C281.3,-639.98 281.3,-630.71 281.3,-622.11"/>
<polygon fill="black" stroke="black" points="284.8,-622.1 281.3,-612.1 277.8,-622.1 284.8,-622.1"/>
</g>
<!-- 28402 -->
<g id="node11" class="node">
<title>28402</title>
<ellipse fill="none" stroke="black" cx="300.3" cy="-738" rx="40.09" ry="18"/>
<text text-anchor="middle" x="300.3" y="-734.3" font-family="Times,serif" font-size="14.00">28402</text>
</g>
<!-- 28402&#45;&gt;28403 -->
<g id="edge13" class="edge">
<title>28402&#45;&gt;28403</title>
<path fill="none" stroke="black" d="M295.7,-720.05C293.58,-712.26 291.02,-702.82 288.65,-694.08"/>
<polygon fill="black" stroke="black" points="291.98,-693.01 285.99,-684.28 285.23,-694.84 291.98,-693.01"/>
</g>
<!-- 28377 -->
<g id="node12" class="node">
<title>28377</title>
<ellipse fill="none" stroke="black" cx="337.3" cy="-810" rx="40.09" ry="18"/>
<text text-anchor="middle" x="337.3" y="-806.3" font-family="Times,serif" font-size="14.00">28377</text>
</g>
<!-- 28377&#45;&gt;28402 -->
<g id="edge15" class="edge">
<title>28377&#45;&gt;28402</title>
<path fill="none" stroke="black" d="M328.53,-792.41C324.21,-784.25 318.91,-774.22 314.07,-765.07"/>
<polygon fill="black" stroke="black" points="317.03,-763.16 309.26,-755.96 310.84,-766.43 317.03,-763.16"/>
</g>
<!-- 28378 -->
<g id="node13" class="node">
<title>28378</title>
<ellipse fill="none" stroke="black" cx="559.3" cy="-738" rx="40.09" ry="18"/>
<text text-anchor="middle" x="559.3" y="-734.3" font-family="Times,serif" font-size="14.00">28378</text>
</g>
<!-- 28377&#45;&gt;28378 -->
<g id="edge14" class="edge">
<title>28377&#45;&gt;28378</title>
<path fill="none" stroke="black" d="M369.58,-798.82C408.74,-786.47 474.83,-765.63 517.75,-752.1"/>
<polygon fill="black" stroke="black" points="518.85,-755.42 527.34,-749.08 516.75,-748.75 518.85,-755.42"/>
</g>
<!-- 28379 -->
<g id="node21" class="node">
<title>28379</title>
<ellipse fill="none" stroke="black" cx="578.3" cy="-666" rx="40.09" ry="18"/>
<text text-anchor="middle" x="578.3" y="-662.3" font-family="Times,serif" font-size="14.00">28379</text>
</g>
<!-- 28378&#45;&gt;28379 -->
<g id="edge16" class="edge">
<title>28378&#45;&gt;28379</title>
<path fill="none" stroke="black" d="M563.9,-720.05C566.01,-712.26 568.57,-702.82 570.95,-694.08"/>
<polygon fill="black" stroke="black" points="574.37,-694.84 573.61,-684.28 567.61,-693.01 574.37,-694.84"/>
</g>
<!-- 28376 -->
<g id="node14" class="node">
<title>28376</title>
<ellipse fill="none" stroke="black" cx="337.3" cy="-882" rx="40.09" ry="18"/>
<text text-anchor="middle" x="337.3" y="-878.3" font-family="Times,serif" font-size="14.00">28376</text>
</g>
<!-- 28376&#45;&gt;28377 -->
<g id="edge17" class="edge">
<title>28376&#45;&gt;28377</title>
<path fill="none" stroke="black" d="M337.3,-863.7C337.3,-855.98 337.3,-846.71 337.3,-838.11"/>
<polygon fill="black" stroke="black" points="340.8,-838.1 337.3,-828.1 333.8,-838.1 340.8,-838.1"/>
</g>
<!-- 28362 -->
<g id="node15" class="node">
<title>28362</title>
<ellipse fill="none" stroke="black" cx="301.3" cy="-954" rx="40.09" ry="18"/>
<text text-anchor="middle" x="301.3" y="-950.3" font-family="Times,serif" font-size="14.00">28362</text>
</g>
<!-- 28362&#45;&gt;28376 -->
<g id="edge18" class="edge">
<title>28362&#45;&gt;28376</title>
<path fill="none" stroke="black" d="M310.01,-936.05C314.21,-927.89 319.34,-917.91 324.02,-908.82"/>
<polygon fill="black" stroke="black" points="327.2,-910.28 328.66,-899.79 320.98,-907.08 327.2,-910.28"/>
</g>
<!-- 28303 -->
<g id="node16" class="node">
<title>28303</title>
<ellipse fill="none" stroke="black" cx="400.3" cy="-954" rx="40.09" ry="18"/>
<text text-anchor="middle" x="400.3" y="-950.3" font-family="Times,serif" font-size="14.00">28303</text>
</g>
<!-- 28303&#45;&gt;28376 -->
<g id="edge19" class="edge">
<title>28303&#45;&gt;28376</title>
<path fill="none" stroke="black" d="M386,-937.12C377.98,-928.2 367.81,-916.91 358.84,-906.94"/>
<polygon fill="black" stroke="black" points="361.26,-904.4 351.97,-899.31 356.06,-909.08 361.26,-904.4"/>
</g>
<!-- 28375 -->
<g id="node17" class="node">
<title>28375</title>
<ellipse fill="none" stroke="black" cx="209.3" cy="-234" rx="40.09" ry="18"/>
<text text-anchor="middle" x="209.3" y="-230.3" font-family="Times,serif" font-size="14.00">28375</text>
</g>
<!-- 28410 -->
<g id="node18" class="node">
<title>28410</title>
<ellipse fill="none" stroke="black" cx="258.3" cy="-162" rx="40.09" ry="18"/>
<text text-anchor="middle" x="258.3" y="-158.3" font-family="Times,serif" font-size="14.00">28410</text>
</g>
<!-- 28375&#45;&gt;28410 -->
<g id="edge20" class="edge">
<title>28375&#45;&gt;28410</title>
<path fill="none" stroke="black" d="M220.91,-216.41C226.89,-207.87 234.3,-197.28 240.95,-187.79"/>
<polygon fill="black" stroke="black" points="243.9,-189.67 246.77,-179.47 238.17,-185.66 243.9,-189.67"/>
</g>
<!-- 28411 -->
<g id="node35" class="node">
<title>28411</title>
<ellipse fill="none" stroke="black" cx="258.3" cy="-90" rx="40.09" ry="18"/>
<text text-anchor="middle" x="258.3" y="-86.3" font-family="Times,serif" font-size="14.00">28411</text>
</g>
<!-- 28410&#45;&gt;28411 -->
<g id="edge21" class="edge">
<title>28410&#45;&gt;28411</title>
<path fill="none" stroke="black" d="M258.3,-143.7C258.3,-135.98 258.3,-126.71 258.3,-118.11"/>
<polygon fill="black" stroke="black" points="261.8,-118.1 258.3,-108.1 254.8,-118.1 261.8,-118.1"/>
</g>
<!-- 28373 -->
<g id="node19" class="node">
<title>28373</title>
<ellipse fill="none" stroke="black" cx="160.3" cy="-306" rx="40.09" ry="18"/>
<text text-anchor="middle" x="160.3" y="-302.3" font-family="Times,serif" font-size="14.00">28373</text>
</g>
<!-- 28373&#45;&gt;28375 -->
<g id="edge22" class="edge">
<title>28373&#45;&gt;28375</title>
<path fill="none" stroke="black" d="M171.91,-288.41C177.89,-279.87 185.3,-269.28 191.95,-259.79"/>
<polygon fill="black" stroke="black" points="194.9,-261.67 197.77,-251.47 189.17,-257.66 194.9,-261.67"/>
</g>
<!-- 28409&#45;&gt;28410 -->
<g id="edge23" class="edge">
<title>28409&#45;&gt;28410</title>
<path fill="none" stroke="black" d="M316.65,-217.46C306.55,-208.04 293.5,-195.85 282.29,-185.4"/>
<polygon fill="black" stroke="black" points="284.59,-182.76 274.89,-178.49 279.82,-187.87 284.59,-182.76"/>
</g>
<!-- 28379&#45;&gt;28400 -->
<g id="edge24" class="edge">
<title>28379&#45;&gt;28400</title>
<path fill="none" stroke="black" d="M555.9,-651C539.22,-640.58 516.24,-626.21 497.72,-614.64"/>
<polygon fill="black" stroke="black" points="499.37,-611.55 489.04,-609.21 495.66,-617.48 499.37,-611.55"/>
</g>
<!-- 28329 -->
<g id="node22" class="node">
<title>28329</title>
<ellipse fill="none" stroke="black" cx="510.3" cy="-810" rx="40.09" ry="18"/>
<text text-anchor="middle" x="510.3" y="-806.3" font-family="Times,serif" font-size="14.00">28329</text>
</g>
<!-- 28329&#45;&gt;28378 -->
<g id="edge25" class="edge">
<title>28329&#45;&gt;28378</title>
<path fill="none" stroke="black" d="M521.91,-792.41C527.89,-783.87 535.3,-773.28 541.95,-763.79"/>
<polygon fill="black" stroke="black" points="544.9,-765.67 547.77,-755.47 539.17,-761.66 544.9,-765.67"/>
</g>
<!-- 28315 -->
<g id="node23" class="node">
<title>28315</title>
<ellipse fill="none" stroke="black" cx="609.3" cy="-810" rx="40.09" ry="18"/>
<text text-anchor="middle" x="609.3" y="-806.3" font-family="Times,serif" font-size="14.00">28315</text>
</g>
<!-- 28315&#45;&gt;28378 -->
<g id="edge26" class="edge">
<title>28315&#45;&gt;28378</title>
<path fill="none" stroke="black" d="M597.45,-792.41C591.34,-783.87 583.78,-773.28 577,-763.79"/>
<polygon fill="black" stroke="black" points="579.72,-761.57 571.06,-755.47 574.03,-765.64 579.72,-761.57"/>
</g>
<!-- 28401 -->
<g id="node30" class="node">
<title>28401</title>
<ellipse fill="none" stroke="black" cx="405.3" cy="-450" rx="40.09" ry="18"/>
<text text-anchor="middle" x="405.3" y="-446.3" font-family="Times,serif" font-size="14.00">28401</text>
</g>
<!-- 28400&#45;&gt;28401 -->
<g id="edge27" class="edge">
<title>28400&#45;&gt;28401</title>
<path fill="none" stroke="black" d="M459.06,-576.15C448.56,-551.71 429,-506.17 416.59,-477.29"/>
<polygon fill="black" stroke="black" points="419.69,-475.63 412.52,-467.82 413.26,-478.39 419.69,-475.63"/>
</g>
<!-- 28396 -->
<g id="node25" class="node">
<title>28396</title>
<ellipse fill="none" stroke="black" cx="148.3" cy="-882" rx="40.09" ry="18"/>
<text text-anchor="middle" x="148.3" y="-878.3" font-family="Times,serif" font-size="14.00">28396</text>
</g>
<!-- 28396&#45;&gt;28397 -->
<g id="edge28" class="edge">
<title>28396&#45;&gt;28397</title>
<path fill="none" stroke="black" d="M148.3,-863.7C148.3,-855.98 148.3,-846.71 148.3,-838.11"/>
<polygon fill="black" stroke="black" points="151.8,-838.1 148.3,-828.1 144.8,-838.1 151.8,-838.1"/>
</g>
<!-- 28395 -->
<g id="node26" class="node">
<title>28395</title>
<ellipse fill="none" stroke="black" cx="86.3" cy="-954" rx="40.09" ry="18"/>
<text text-anchor="middle" x="86.3" y="-950.3" font-family="Times,serif" font-size="14.00">28395</text>
</g>
<!-- 28395&#45;&gt;28396 -->
<g id="edge29" class="edge">
<title>28395&#45;&gt;28396</title>
<path fill="none" stroke="black" d="M100.37,-937.12C108.26,-928.2 118.27,-916.91 127.09,-906.94"/>
<polygon fill="black" stroke="black" points="129.84,-909.11 133.85,-899.31 124.6,-904.47 129.84,-909.11"/>
</g>
<!-- 28391 -->
<g id="node27" class="node">
<title>28391</title>
<ellipse fill="none" stroke="black" cx="185.3" cy="-954" rx="40.09" ry="18"/>
<text text-anchor="middle" x="185.3" y="-950.3" font-family="Times,serif" font-size="14.00">28391</text>
</g>
<!-- 28391&#45;&gt;28396 -->
<g id="edge30" class="edge">
<title>28391&#45;&gt;28396</title>
<path fill="none" stroke="black" d="M176.53,-936.41C172.21,-928.25 166.91,-918.22 162.07,-909.07"/>
<polygon fill="black" stroke="black" points="165.03,-907.16 157.26,-899.96 158.84,-910.43 165.03,-907.16"/>
</g>
<!-- 28399 -->
<g id="node29" class="node">
<title>28399</title>
<ellipse fill="none" stroke="black" cx="479.3" cy="-666" rx="40.09" ry="18"/>
<text text-anchor="middle" x="479.3" y="-662.3" font-family="Times,serif" font-size="14.00">28399</text>
</g>
<!-- 28398&#45;&gt;28399 -->
<g id="edge31" class="edge">
<title>28398&#45;&gt;28399</title>
<path fill="none" stroke="black" d="M231.51,-726.03C237.99,-723.88 244.83,-721.74 251.3,-720 329.22,-698.97 351.37,-705.03 429.3,-684 432.63,-683.1 436.06,-682.1 439.49,-681.04"/>
<polygon fill="black" stroke="black" points="440.63,-684.35 449.08,-677.97 438.49,-677.69 440.63,-684.35"/>
</g>
<!-- 28399&#45;&gt;28400 -->
<g id="edge32" class="edge">
<title>28399&#45;&gt;28400</title>
<path fill="none" stroke="black" d="M476.15,-648.05C474.72,-640.35 472.99,-631.03 471.38,-622.36"/>
<polygon fill="black" stroke="black" points="474.77,-621.47 469.5,-612.28 467.89,-622.75 474.77,-621.47"/>
</g>
<!-- 28401&#45;&gt;28408 -->
<g id="edge33" class="edge">
<title>28401&#45;&gt;28408</title>
<path fill="none" stroke="black" d="M402.76,-431.87C399.18,-407.67 392.61,-363.21 388.35,-334.39"/>
<polygon fill="black" stroke="black" points="391.76,-333.57 386.84,-324.19 384.84,-334.59 391.76,-333.57"/>
</g>
<!-- 376 -->
<g id="node31" class="node">
<title>376</title>
<ellipse fill="none" stroke="black" cx="441.3" cy="-378" rx="28.7" ry="18"/>
<text text-anchor="middle" x="441.3" y="-374.3" font-family="Times,serif" font-size="14.00">376</text>
</g>
<!-- 376&#45;&gt;28408 -->
<g id="edge34" class="edge">
<title>376&#45;&gt;28408</title>
<path fill="none" stroke="black" d="M428.65,-361.46C421.47,-352.65 412.33,-341.43 404.22,-331.46"/>
<polygon fill="black" stroke="black" points="406.73,-329.01 397.71,-323.47 401.31,-333.43 406.73,-329.01"/>
</g>
<!-- 28374 -->
<g id="node32" class="node">
<title>28374</title>
<ellipse fill="none" stroke="black" cx="40.3" cy="-378" rx="40.09" ry="18"/>
<text text-anchor="middle" x="40.3" y="-374.3" font-family="Times,serif" font-size="14.00">28374</text>
</g>
<!-- 28374&#45;&gt;28373 -->
<g id="edge35" class="edge">
<title>28374&#45;&gt;28373</title>
<path fill="none" stroke="black" d="M63.72,-363.34C81.94,-352.71 107.43,-337.84 127.65,-326.04"/>
<polygon fill="black" stroke="black" points="129.65,-328.93 136.52,-320.87 126.12,-322.88 129.65,-328.93"/>
</g>
<!-- 4034 -->
<g id="node33" class="node">
<title>4034</title>
<ellipse fill="none" stroke="black" cx="133.3" cy="-378" rx="34.39" ry="18"/>
<text text-anchor="middle" x="133.3" y="-374.3" font-family="Times,serif" font-size="14.00">4034</text>
</g>
<!-- 4034&#45;&gt;28373 -->
<g id="edge36" class="edge">
<title>4034&#45;&gt;28373</title>
<path fill="none" stroke="black" d="M139.83,-360.05C142.92,-352.06 146.67,-342.33 150.11,-333.4"/>
<polygon fill="black" stroke="black" points="153.49,-334.38 153.82,-323.79 146.96,-331.86 153.49,-334.38"/>
</g>
<!-- 362 -->
<g id="node34" class="node">
<title>362</title>
<ellipse fill="none" stroke="black" cx="214.3" cy="-378" rx="28.7" ry="18"/>
<text text-anchor="middle" x="214.3" y="-374.3" font-family="Times,serif" font-size="14.00">362</text>
</g>
<!-- 362&#45;&gt;28373 -->
<g id="edge37" class="edge">
<title>362&#45;&gt;28373</title>
<path fill="none" stroke="black" d="M202.31,-361.46C195.52,-352.65 186.86,-341.43 179.17,-331.46"/>
<polygon fill="black" stroke="black" points="181.88,-329.25 173,-323.47 176.34,-333.52 181.88,-329.25"/>
</g>
<!-- 56349 -->
<g id="node36" class="node">
<title>56349</title>
<ellipse fill="none" stroke="black" cx="258.3" cy="-18" rx="40.09" ry="18"/>
<text text-anchor="middle" x="258.3" y="-14.3" font-family="Times,serif" font-size="14.00">56349</text>
</g>
<!-- 28411&#45;&gt;56349 -->
<g id="edge38" class="edge">
<title>28411&#45;&gt;56349</title>
<path fill="none" stroke="black" d="M258.3,-71.7C258.3,-63.98 258.3,-54.71 258.3,-46.11"/>
<polygon fill="black" stroke="black" points="261.8,-46.1 258.3,-36.1 254.8,-46.1 261.8,-46.1"/>
</g>
</g>
</svg>
